<svg width="12" height="11" viewBox="0 0 12 11" fill="none" xmlns="http://www.w3.org/2000/svg">
  <path d="M3.2672 1.17309H2.14095L7.42024 6.45202L8.00682 5.90067M10.9163 9.45514L10.4236 9.94784C10.3693 10.0022 10.3048 10.0454 10.2339 10.0748C10.1629 10.1042 10.0868 10.1194 10.01 10.1194C9.9332 10.1194 9.85713 10.1042 9.78616 10.0748C9.7152 10.0454 9.65074 10.0022 9.59648 9.94784L7.76632 8.11782L6.19427 9.67803L5.36718 8.851L6.20013 8.0181L0.967773 2.7861V0H3.75406L8.98643 5.232L9.81938 4.39911L10.6465 5.22614L9.08028 6.79222L10.9104 8.62225C11.1451 8.85687 11.1451 9.22639 10.9163 9.45514Z" fill="#8E8E8E" fill-opacity="0.3"/>
</svg>
